# AST/ASF file generated using VICON BodyLanguage
# -----------------------------------------------
:version 1.10
:name VICON
:units
  mass 1.0
  length 0.45
  angle deg
:documentation
   .ast/.asf automatically generated from VICON data using
   VICON BodyBuilder and BodyLanguage model FoxedUp or BRILLIANT.MOD
:root
   order TX TY TZ RX RY RZ
   axis XYZ
   position 0 0 0  
   orientation 0 0 0 
:bonedata
  begin
     id 1 
     name lhipjoint
     direction 0.602128 -0.715006 0.355257 
     length 2.21237 
     axis 0 0 0  XYZ
  end
  begin
     id 2 
     name lfemur
     direction 0.34202 -0.939693 0  
     length 6.71649  
     axis 0 0 20  XYZ
    dof rx ry rz
    limits (-160.0 20.0)
           (-70.0 70.0)
           (-60.0 70.0)
  end
  begin
     id 3 
     name ltibia
     direction 0.34202 -0.939693 0   
     length 6.97123   
     axis 0 0 20   XYZ
    dof rx
    limits (-10.0 170.0)
  end
  begin
     id 4 
     name lfoot
     direction 0.0655697 -0.180151 0.981451   
     length 1.80924   
     axis -90 7.62852e-016 20   XYZ
    dof rx rz
    limits (-45.0 90.0)
           (-70.0 20.0)
  end
  begin
     id 5 
     name ltoes
     direction 1.53545e-011 -4.21827e-011 1   
     length 0.916331   
     axis -90 7.62852e-016 20   XYZ
    dof rx
    limits (-90.0 20.0)
  end
  begin
     id 6 
     name rhipjoint
     direction -0.625414 -0.698792 0.347201   
     length 2.2637  
     axis 0 0 0  XYZ 
  end
  begin
     id 7 
     name rfemur
     direction -0.34202 -0.939693 0   
     length 7.07595   
     axis 0 0 -20   XYZ
    dof rx ry rz
    limits (-160.0 20.0)
           (-70.0 70.0)
           (-70.0 60.0)
  end
  begin
     id 8 
     name rtibia
     direction -0.34202 -0.939693 0   
     length 7.22924   
     axis 0 0 -20   XYZ
    dof rx
    limits (-10.0 170.0)
 end
 begin
     id 9 
     name rfoot
     direction -0.0766747 -0.210662 0.974547   
     length 1.98482  
     axis -90 -7.62852e-016 -20   XYZ
    dof rx rz
    limits (-45.0 90.0)
           (-20.0 70.0)
  end
  begin
     id 10 
     name rtoes
     direction -1.53532e-011 -4.21867e-011 1   
     length 0.999842   
     axis -90 -7.62852e-016 -20   XYZ
    dof rx
    limits (-90.0 20.0)
  end
  begin
     id 11 
     name lowerback
     direction -0.0224668 0.997354 -0.0691422   
     length 2.09945   
     axis 0 0 0   XYZ
    dof rx ry rz
    limits (-20.0 45.0)
           (-30.0 30.0)
           (-30.0 30.0)
  end
  begin
     id 12 
     name upperback
     direction 0.0134698 0.998451 -0.0539888   
     length 2.09758   
     axis 0 0 0   XYZ
    dof rx ry rz
    limits (-20.0 45.0)
           (-30.0 30.0)
           (-30.0 30.0)
  end
  begin
     id 13 
     name thorax
     direction 0.0241905 0.99948 -0.0213333   
     length 2.10428   
     axis 0 0 0   XYZ
    dof rx ry rz
    limits (-20.0 45.0)
           (-30.0 30.0)
           (-30.0 30.0)
  end
  begin
     id 14 
     name lowerneck
     direction -0.00866847 0.995978 0.0891737   
     length 1.3959   
     axis 0 0 0   XYZ
    dof rx ry rz
    limits (-20.0 45.0)
           (-30.0 30.0)
           (-30.0 30.0)
  end
  begin
     id 15 
     name upperneck
     direction 0.0680679 0.992203 0.104404   
     length 1.39452   
     axis 0 0 0   XYZ
    dof rx ry rz
    limits (-20.0 45.0)
           (-30.0 30.0)
           (-30.0 30.0)
  end
  begin
     id 16
     name head
     direction 0.0242216 0.999358 0.0264054  
     length 1.40433  
     axis 0 0 0   XYZ
    dof rx ry rz
    limits (-20.0 45.0)
           (-30.0 30.0)
           (-30.0 30.0)
  end
  begin
     id 17 
     name lclavicle
     direction 0.929368 0.362991 -0.0671771  
     length 3.04887  
     axis 0 0 0   XYZ
    dof ry rz
    limits (-20.0 10.0)
           (0.0 20.0)
  end
  begin
     id 18 
     name lhumerus
     direction 1 -4.48967e-011 -7.13741e-028   
     length 4.77195   
     axis -180 -30 -90   XYZ
    dof rx ry rz
    limits (-60.0 90.0)
           (-90.0 90.0)
           (-90.0 90.0)
  end
  begin
     id 19
     name lradius
     direction 1 -4.48977e-011 3.60404e-027   
     length 2.98444   
     axis -180 -30 -90   XYZ
    dof rx
    limits (-10.0 170.0)
  end
  begin
     id 20
     name lwrist
     direction 1 -4.48997e-011 7.54877e-027   
     length 1.49222   
     axis -7.18178e-015 90 90   XYZ
    dof ry
    limits (-180.0 0.0)
 end
  begin
     id 21 
     name lhand
     direction 1 -4.489e-011 1.51105e-026   
     length 0.992285   
     axis -9.63605e-015 90 90   XYZ
    dof rx rz
    limits (-90.0 90.0)
           (-45.0 45.0)
  end
  begin
     id 22 
     name lfingers
     direction 1 -4.48998e-011 3.01948e-026   
     length 0.800006   
     axis -1.92718e-014 90 90   XYZ
    dof rx
    limits (0.0 90.0)
  end
  begin
     id 23
     name lthumb
     direction 0.707107 -6.34881e-011 0.707107   
     length 1.14865   
     axis -90 45 -3.53137e-014   XYZ
    dof rx rz
    limits (-45.0 45.0)
           (-45.0 45.0)
  end
  begin
     id 24 
     name rclavicle
     direction -0.945672 0.324529 0.0196374   
     length 3.4236  
     axis 0 0 0   XYZ 
    dof ry rz
    limits (-10.0 20.0)
           (-20.0 0.0)
  end
  begin
     id 25 
     name rhumerus
     direction -1 -4.4896e-011 1.02757e-029  
     length 4.62052   
     axis -180 30 90   XYZ
    dof rx ry rz
    limits (-90.0 60.0)
           (-90.0 90.0)
           (-90.0 90.0)
  end
  begin
     id 26 
     name rradius
     direction -1 -4.48982e-011 3.85962e-027   
     length 2.95332   
     axis -180 30 90   XYZ
    dof rx
    limits (-10.0 170.0)
  end
  begin
     id 27 
     name rwrist
     direction -1 -4.48961e-011 7.55118e-027   
     length 1.47666   
     axis -7.18178e-015 -90 -90   XYZ
    dof ry
    limits (-180.0 0.0)
  end
  begin
     id 28
     name rhand
     direction -1 -4.48984e-011 1.50994e-026   
     length 0.990956   
     axis -9.63605e-015 -90 -90   XYZ
    dof rx rz
    limits (-90.0 90.0)
           (-45.0 45.0)
  end
  begin
     id 29
     name rfingers
     direction -1 -4.4892e-011 3.02158e-026   
     length 0.798934   
     axis -1.92718e-014 -90 -90   XYZ
    dof rx
    limits (0.0 90.0)
  end
  begin
     id 30
     name rthumb
     direction -0.707107 -6.34916e-011 0.707107   
     length 1.14711   
     axis -90 -45 3.53137e-014   XYZ
    dof rx rz
    limits (-45.0 45.0)
           (-45.0 45.0)
  end
:hierarchy
  begin
    root lhipjoint rhipjoint lowerback
    lhipjoint lfemur
    lfemur ltibia
    ltibia lfoot
    lfoot ltoes
    rhipjoint rfemur
    rfemur rtibia
    rtibia rfoot
    rfoot rtoes
    lowerback upperback
    upperback thorax
    thorax lowerneck lclavicle rclavicle
    lowerneck upperneck
    upperneck head
    lclavicle lhumerus
    lhumerus lradius
    lradius lwrist
    lwrist lhand lthumb
    lhand lfingers
    rclavicle rhumerus
    rhumerus rradius
    rradius rwrist
    rwrist rhand rthumb
    rhand rfingers
  end

#!OML:ASF H:\ManfredObstacles\Project 1\Capture day 1\Session 1\Male.ASF
:FULLY-SPECIFIED
:DEGREES
337
root 4.09297 16.2764 -0.339026 -171.416 59.7128 -178.876
lowerback -10.754 0.0122632 -2.99317
upperback 1.46664 0.516026 -1.06566
thorax 7.58674 0.156035 0.650148
lowerneck 1.4661 -2.40805 -5.20909
upperneck -3.96897 -2.83022 11.0483
head -1.29029 -1.4633 4.6518
rclavicle -5.45167e-014 9.54166e-015
rhumerus -36.1819 -20.9814 -78.3218
rradius 26.4181
rwrist 32.5176
rhand 0.0264995 -5.57308
rfingers 7.12502
rthumb 25.6158 -33.8702
lclavicle -5.45167e-014 9.54166e-015
lhumerus -38.8461 41.8824 60.1212
lradius 10.9406
lwrist -60.0982
lhand -5.62347 8.78215
lfingers 7.12502
lthumb 20.1943 37.7525
rfemur -4.07385 -5.88013 20.049
rtibia 46.2431
rfoot -0.601289 13.7456
rtoes 25.4691
lfemur -28.8821 -1.31216 -20.0752
ltibia 22.5387
lfoot 4.4883 -8.12988
ltoes 4.7419
338
root 4.2586 16.3228 -0.498986 -171.937 60.0989 -179.362
lowerback -10.5729 0.132964 -3.23399
upperback 1.43702 0.711006 -1.1743
thorax 7.44418 0.246733 0.703054
lowerneck 1.34112 -2.41571 -5.05405
upperneck -3.94273 -2.84521 10.8331
head -1.26168 -1.46733 4.5387
rclavicle 2.4202e-014 -1.27222e-014
rhumerus -36.6097 -20.558 -78.1525
rradius 26.4655
rwrist 32.3093
rhand 0.480316 -5.60907
rfingers 7.12502
rthumb 26.0504 -33.8429
lclavicle 2.4202e-014 -1.27222e-014
lhumerus -37.5659 40.3184 61.8152
lradius 11.26
lwrist -58.253
lhand -5.4948 8.98973
lfingers 7.12502
lthumb 20.3179 37.9469
rfemur -6.39251 -6.53125 19.2798
rtibia 50.8623
rfoot 2.3923 12.2756
rtoes 26.1239
lfemur -27.5848 -0.443391 -20.8046
ltibia 22.1089
lfoot 4.1982 -8.737
ltoes 5.27923
339
root 4.42003 16.3575 -0.650148 -172.937 60.4278 -180.402
lowerback -10.477 0.118115 -3.79972
upperback 1.48654 0.778258 -1.32289
thorax 7.43701 0.260841 0.874961
lowerneck 1.31468 -2.29867 -5.18683
upperneck -4.09387 -2.6729 10.9223
head -1.31957 -1.38126 4.59969
rclavicle -4.91495e-014 -2.06736e-014
rhumerus -36.6679 -19.6537 -78.3505
rradius 26.505
rwrist 32.0962
rhand 0.940909 -5.68748
rfingers 7.12502
rthumb 26.4913 -33.8556
lclavicle -4.91495e-014 -2.06736e-014
lhumerus -35.6709 37.2772 64.6324
lradius 11.8285
lwrist -54.4173
lhand -5.31355 9.28089
lfingers 7.12502
lthumb 20.4921 38.2195
rfemur -8.72325 -6.85115 18.2389
rtibia 55.3436
rfoot 5.35299 10.2051
rtoes 30.8357
lfemur -26.264 0.433175 -21.787
ltibia 21.5429
lfoot 3.91261 -9.4872
ltoes 5.45955
340
root 4.57447 16.3955 -0.794048 -173.611 60.5244 -181.005
lowerback -10.2771 0.0388272 -4.12325
upperback 1.54704 0.714538 -1.40356
thorax 7.38872 0.219376 0.95975
lowerneck 1.35272 -2.17794 -5.28751
upperneck -4.28038 -2.49259 11.0145
head -1.40252 -1.29372 4.65753
rclavicle 5.62561e-014 5.56597e-015
rhumerus -36.6847 -18.8298 -78.5737
rradius 26.5702
rwrist 32.0568
rhand 1.04325 -5.6274
rfingers 7.12502
rthumb 26.5892 -33.7807
lclavicle 5.62561e-014 5.56597e-015
lhumerus -33.948 33.8965 67.3364
lradius 12.4237
lwrist -50.2436
lhand -5.47756 9.48816
lfingers 7.12502
lthumb 20.3345 38.4436
rfemur -11.1452 -7.55422 17.6718
rtibia 59.6156
rfoot 6.56716 8.25967
rtoes 29.4739
lfemur -24.8966 0.824205 -22.3582
ltibia 20.8783
lfoot 3.91581 -9.88951
ltoes 7.27996
341
root 4.71929 16.4253 -0.927422 -173.769 60.3831 -180.983
lowerback -9.97455 -0.0663655 -4.16146
upperback 1.63196 0.559637 -1.35067
thorax 7.3126 0.140682 1.01012
lowerneck 1.39122 -2.11357 -5.31092
upperneck -4.49018 -2.39215 10.9694
head -1.48803 -1.24658 4.65033
rclavicle -3.29486e-014 1.03368e-014
rhumerus -36.6719 -18.3976 -78.5886
rradius 26.6185
rwrist 32.3166
rhand 0.696234 -5.38128
rfingers 7.12502
rthumb 26.2571 -33.5845
lclavicle -3.29486e-014 1.03368e-014
lhumerus -32.6038 30.9787 69.6175
lradius 13.1066
lwrist -46.6567
lhand -5.98414 9.57951
lfingers 7.12502
lthumb 19.8476 38.5861
rfemur -13.596 -8.39739 17.644
rtibia 63.3449
rfoot 5.252 6.11007
rtoes 23.3531
lfemur -23.6363 0.714792 -22.4663
ltibia 20.325
lfoot 3.85063 -10.0419
ltoes 8.63194
342
root 4.85747 16.4487 -1.05404 -174.433 60.1141 -181.522
lowerback -9.66692 -0.234613 -4.49324
upperback 1.75935 0.366747 -1.37417
thorax 7.2817 0.0328191 1.13967
lowerneck 1.39652 -2.05835 -5.31026
upperneck -4.66564 -2.30491 10.9239
head -1.55519 -1.20475 4.63675
rclavicle -7.16619e-014 3.18055e-015
rhumerus -36.5952 -18.1771 -78.5706
rradius 26.725
rwrist 32.5899
rhand 0.432883 -5.22102
rfingers 7.12502
rthumb 26.0049 -33.4615
lclavicle -7.16619e-014 3.18055e-015
lhumerus -31.4655 28.1442 71.6685
lradius 14.0193
lwrist -43.42
lhand -6.3221 9.64579
lfingers 7.12502
lthumb 19.5227 38.6856
rfemur -15.8775 -9.30323 17.3424
rtibia 66.602
rfoot 3.38927 4.48132
rtoes 22.0989
lfemur -22.506 0.399952 -22.8472
ltibia 20.0004
lfoot 3.48749 -10.145
ltoes 10.0382
343
root 4.99171 16.4544 -1.17751 -175.722 59.8354 -182.79
lowerback -9.41726 -0.420489 -5.12561
upperback 1.88323 0.205991 -1.55593
thorax 7.28248 -0.0665832 1.277
lowerneck 1.52169 -2.00824 -5.25378
upperneck -4.81153 -2.2306 10.8561
head -1.6341 -1.17317 4.60578
rclavicle -7.88181e-014 2.38542e-014
rhumerus -36.6709 -18.1411 -78.551
rradius 27.0349
rwrist 32.5806
rhand 0.272579 -5.23547
rfingers 7.12502
rthumb 25.8514 -33.4985
lclavicle -7.88181e-014 2.38542e-014
lhumerus -30.4931 25.3956 73.3755
lradius 14.9875
lwrist -40.713
lhand -6.53486 9.79283
lfingers 7.12502
lthumb 19.3181 38.8533
rfemur -18.0823 -9.80812 16.7518
rtibia 69.0826
rfoot 1.39673 3.57458
rtoes 22.6557
lfemur -21.5582 0.173089 -23.6956
ltibia 19.9978
lfoot 2.93135 -10.3027
ltoes 11.6245
344
root 5.12367 16.451 -1.29821 -176.145 59.5348 -183.069
lowerback -9.17751 -0.526493 -5.16592
upperback 1.96671 0.0650897 -1.63988
thorax 7.24321 -0.134365 1.18931
lowerneck 1.72283 -2.00844 -5.24254
upperneck -4.88621 -2.22981 10.873
head -1.69594 -1.17994 4.61577
rclavicle 4.90004e-014 2.78299e-014
rhumerus -36.8742 -18.6156 -78.2875
rradius 27.1982
rwrist 32.5549
rhand -0.139644 -4.85452
rfingers 7.12502
rthumb 25.4566 -33.1744
lclavicle 4.90004e-014 2.78299e-014
lhumerus -29.5652 22.9059 74.7759
lradius 15.6837
lwrist -38.6228
lhand -6.92038 9.90289
lfingers 7.12502
lthumb 18.9474 39
rfemur -20.351 -9.6287 16.829
rtibia 70.8276
rfoot -0.442215 3.16283
rtoes 22.0906
lfemur -20.845 0.202912 -24.1244
ltibia 20.4241
lfoot 2.13293 -10.7795
ltoes 11.2415
345
root 5.25187 16.461 -1.41179 -175.176 59.1599 -181.679
lowerback -8.87432 -0.584642 -4.37211
upperback 2.06892 -0.139741 -1.49246
thorax 7.18329 -0.207757 0.869012
lowerneck 1.72208 -2.0247 -5.13342
upperneck -4.72396 -2.26214 10.8566
head -1.64021 -1.19571 4.5844
rclavicle 1.56046e-014 1.66979e-014
rhumerus -37.0534 -19.2794 -77.9901
rradius 27.3582
rwrist 32.4325
rhand -0.386037 -4.50148
rfingers 7.12502
rthumb 25.2206 -32.8548
lclavicle 1.56046e-014 1.66979e-014
lhumerus -28.4871 20.7108 75.9777
lradius 16.0941
lwrist -36.8441
lhand -7.11288 9.87865
lfingers 7.12502
lthumb 18.7623 38.9938
rfemur -22.2438 -9.87164 17.7324
rtibia 71.6366
rfoot -2.20287 3.84267
rtoes 20.4152
lfemur -20.2174 0.296789 -23.5563
ltibia 20.9889
lfoot 1.45111 -11.4821
ltoes 9.79007
346
root 5.37678 16.4479 -1.51549 -174.495 58.7047 -180.652
lowerback -8.63627 -0.739135 -3.96454
upperback 2.20182 -0.424636 -1.2605
thorax 7.19822 -0.339866 0.842353
lowerneck 1.56653 -2.03578 -5.07513
upperneck -4.43467 -2.30574 10.711
head -1.5139 -1.20995 4.51037
rclavicle -4.97956e-014 5.56597e-015
rhumerus -37.1523 -19.3292 -77.8434
rradius 27.8031
rwrist 31.9116
rhand -0.339677 -4.78176
rfingers 7.12502
rthumb 25.265 -33.1289
lclavicle -4.97956e-014 5.56597e-015
lhumerus -27.3668 18.9937 77.1498
lradius 16.5055
lwrist -35.3023
lhand -7.00062 9.85837
lfingers 7.12502
lthumb 18.8702 38.963
rfemur -24.0453 -9.28825 18.5927
rtibia 71.815
rfoot -3.92307 4.36264
rtoes 21.2147
lfemur -19.8275 0.396043 -23.0952
ltibia 21.7778
lfoot 0.909454 -12.374
ltoes 8.58344
347
root 5.50779 16.4545 -1.62122 -174.302 58.1601 -180.441
lowerback -8.6704 -0.957679 -4.05261
upperback 2.27536 -0.717857 -1.07844
thorax 7.31373 -0.495443 1.03812
lowerneck 1.46706 -2.08125 -5.18289
upperneck -4.23088 -2.38688 10.7247
head -1.42045 -1.24473 4.53137
rclavicle -3.1408e-014 -1.59028e-015
rhumerus -37.2154 -19.1448 -77.6876
rradius 28.1272
rwrist 31.3354
rhand -0.410766 -5.05491
rfingers 7.12502
rthumb 25.1969 -33.4116
lclavicle -3.1408e-014 -1.59028e-015
lhumerus -26.3325 17.4228 78.3035
lradius 17.0156
lwrist -33.9651
lhand -6.82689 9.79868
lfingers 7.12502
lthumb 19.0373 38.887
rfemur -25.8547 -9.07161 18.9172
rtibia 71.4457
rfoot -5.42784 5.06021
rtoes 20.5708
lfemur -19.7156 0.301031 -23.0826
ltibia 22.8022
lfoot 0.165477 -13.1206
ltoes 8.40829
348
root 5.63369 16.445 -1.72294 -173.888 57.5726 -180.007
lowerback -8.70495 -1.11513 -3.89884
upperback 2.33182 -0.95319 -0.961172
thorax 7.40441 -0.609637 1.03835
lowerneck 1.44098 -2.15229 -5.25176
upperneck -4.14901 -2.47859 10.9373
head -1.37802 -1.28913 4.62123
rclavicle -1.08437e-013 2.8625e-014
rhumerus -37.3288 -19.2572 -77.5585
rradius 28.3412
rwrist 30.9917
rhand -0.31494 -4.91506
rfingers 7.12502
rthumb 25.2887 -33.2588
lclavicle -1.08437e-013 2.8625e-014
lhumerus -25.3505 15.3685 79.3917
lradius 17.6665
lwrist -32.3757
lhand -6.68304 9.71859
lfingers 7.12502
lthumb 19.1756 38.7933
rfemur -27.6365 -8.77246 19.4193
rtibia 70.5885
rfoot -7.07267 5.18552
rtoes 17.2018
lfemur -19.6665 0.105787 -22.9225
ltibia 23.8146
lfoot -0.596271 -13.6692
ltoes 9.35253
349
root 5.75348 16.4057 -1.81354 -173.591 57.0625 -179.612
lowerback -8.5305 -1.26855 -3.85645
upperback 2.34451 -1.18598 -0.795721
thorax 7.33133 -0.726125 1.15645
lowerneck 1.37955 -2.17939 -5.34364
upperneck -4.03702 -2.51692 11.0988
head -1.32414 -1.3049 4.69563
rclavicle 2.14687e-014 -2.70347e-014
rhumerus -37.5549 -19.0393 -77.4723
rradius 28.7167
rwrist 30.5643
rhand 0.216632 -4.99624
rfingers 7.12502
rthumb 25.7979 -33.267
lclavicle 2.14687e-014 -2.70347e-014
lhumerus -24.6296 13.3351 80.4447
lradius 18.4698
lwrist -30.8091
lhand -6.75093 9.71351
lfingers 7.12502
lthumb 19.1104 38.7946
rfemur -29.0995 -7.89644 19.7392
rtibia 69.3262
rfoot -8.49647 4.9653
rtoes 19.374
lfemur -19.4828 0.252393 -22.7891
ltibia 24.5599
lfoot -1.00088 -14.4141
ltoes 10.4459
350
root 5.8816 16.3906 -1.9055 -173.648 56.6024 -179.686
lowerback -8.41718 -1.45153 -4.10851
upperback 2.28778 -1.41826 -0.681825
thorax 7.22807 -0.851997 1.38615
lowerneck 1.42991 -2.17847 -5.46983
upperneck -3.96698 -2.52005 11.2477
head -1.30752 -1.30659 4.77578
rclavicle 6.8531e-014 3.97569e-015
rhumerus -37.9456 -18.7396 -77.3525
rradius 29.1256
rwrist 30.2162
rhand 0.636543 -5.42598
rfingers 7.12502
rthumb 26.1999 -33.6377
lclavicle 6.8531e-014 3.97569e-015
lhumerus -24.1627 11.6398 81.3214
lradius 19.3798
lwrist -29.4391
lhand -6.86597 9.77374
lfingers 7.12502
lthumb 18.9997 38.8658
rfemur -30.7997 -8.2666 19.8579
rtibia 67.6543
rfoot -9.56692 4.31381
rtoes 16.7691
lfemur -19.2652 0.437495 -22.9141
ltibia 25.3157
lfoot -1.37076 -15.1856
ltoes 11.5374
351
root 6.01231 16.3926 -1.99908 -173.577 56.148 -179.568
lowerback -8.39416 -1.57498 -4.13652
upperback 2.28394 -1.58679 -0.615641
thorax 7.22335 -0.937588 1.44693
lowerneck 1.54363 -2.22897 -5.44156
upperneck -4.00366 -2.58589 11.2759
head -1.33415 -1.34373 4.78391
rclavicle -7.00716e-015 1.86858e-014
rhumerus -38.2383 -18.9315 -77.131
rradius 29.2184
rwrist 30.3322
rhand 0.738524 -5.44752
rfingers 7.12502
rthumb 26.2976 -33.6447
lclavicle -7.00716e-015 1.86858e-014
lhumerus -23.6755 9.9775 82.053
lradius 20.3227
lwrist -27.9548
lhand -6.9397 9.96003
lfingers 7.12502
lthumb 18.9288 39.059
rfemur -32.0913 -7.66588 20.1076
rtibia 65.5589
rfoot -10.8872 2.86904
rtoes 13.0311
lfemur -18.8757 0.280079 -22.8644
ltibia 25.8971
lfoot -1.9729 -15.6311
ltoes 11.2026
